<?xml version="1.0" encoding="utf-8"?>
<!-- Generator: Adobe Illustrator 21.0.2, SVG Export Plug-In . SVG Version: 6.00 Build 0)  -->
<svg version="1.1" xmlns="http://www.w3.org/2000/svg" xmlns:xlink="http://www.w3.org/1999/xlink" x="0px" y="0px"
	 viewBox="0 0 841.9 595.3" style="enable-background:new 0 0 841.9 595.3;" xml:space="preserve">
<style type="text/css">
	.st0{fill:#206008;}
	.st1{fill:url(#SVGID_1_);}
	.st2{fill:#FF0019;stroke:#FF0019;stroke-width:2;stroke-miterlimit:10;}
	.st3{fill:none;stroke:#000000;stroke-width:3;stroke-miterlimit:10;}
	.st4{fill:#FFFFFF;}
	.st5{stroke:#000000;stroke-width:2;stroke-miterlimit:10;}
	.st6{fill:url(#SVGID_2_);}
	.st7{fill:#FFFFFF;stroke:#000000;stroke-width:3;stroke-miterlimit:10;}
	.st8{stroke:#000000;stroke-width:3;stroke-miterlimit:10;}
	.st9{fill:url(#SVGID_3_);}
	.st10{fill:url(#SVGID_4_);}
	.st11{fill:url(#SVGID_5_);}
	.st12{fill:url(#SVGID_6_);}
	.st13{fill:url(#SVGID_7_);}
	.st14{fill:url(#SVGID_8_);}
	.st15{fill:url(#SVGID_9_);}
	.st16{fill:url(#SVGID_10_);}
	.st17{fill:url(#SVGID_11_);}
	.st18{fill:url(#SVGID_12_);}
	.st19{fill:url(#SVGID_13_);}
	.st20{fill:url(#SVGID_14_);}
	.st21{fill:url(#SVGID_15_);}
	.st22{fill:url(#SVGID_16_);}
	.st23{fill:url(#SVGID_17_);}
	.st24{fill:url(#SVGID_18_);}
	.st25{fill:url(#SVGID_19_);}
	.st26{fill:url(#SVGID_20_);}
	.st27{fill:url(#SVGID_21_);stroke:#000000;stroke-width:3;stroke-miterlimit:10;}
	.st28{fill:url(#SVGID_22_);stroke:#000000;stroke-width:3;stroke-miterlimit:10;}
	.st29{fill:url(#SVGID_23_);}
	.st30{fill:url(#SVGID_24_);}
</style>
<g id="Layer_9">
	<rect x="-91.8" y="-29.4" class="st0" width="998.1" height="640.8"/>
	
		<linearGradient id="SVGID_1_" gradientUnits="userSpaceOnUse" x1="330.8369" y1="127.5144" x2="516.5117" y2="127.5144" gradientTransform="matrix(0.9061 -0.423 0.423 0.9061 -172.6828 227.7818)">
		<stop  offset="0.9916" style="stop-color:#FFFFFF"/>
		<stop  offset="1" style="stop-color:#000000"/>
	</linearGradient>
	<path class="st1" d="M390.7,242.3l-146.2,68.2c-6.1,2.8-13.4,0.2-16.2-5.9l-94.5-202.5c-2.8-6.1-0.2-13.4,5.9-16.2l146.2-68.2
		c6.1-2.8,13.4-0.2,16.2,5.9l94.5,202.5C399.4,232.2,396.7,239.5,390.7,242.3z"/>
	<g>
		<path class="st2" d="M213.4,132.7c-3.3-5.2-9.3-7.5-14.3-6c-7.1,2.2-9.3,11.4-7,17.1c1.5,3.8,4.8,5.7,5.8,6.3
			c4.6,2.6,8.2,1.4,13.2,2.2c3.8,0.5,9,2.3,14.8,7.6C221.7,150.8,217.6,141.8,213.4,132.7z"/>
		<path class="st2" d="M237.5,131.6c-1,5.2-4.2,7.2-6.8,11.5c-1.9,3.2-3.8,8.3-3.2,16.1c-2.3-4.3-4.6-8.8-6.9-13.4
			c-2.3-4.6-4.4-9.1-6.4-13.5c-1.9-5.8,0.2-12,4.6-14.8c6.3-4,14.7,0.2,17.6,5.6C238.4,126.7,237.7,130.4,237.5,131.6z"/>
	</g>
	<g>
		<path class="st2" d="M302.7,179.6c-3.3-5.2-9.3-7.5-14.3-6c-7.1,2.2-9.3,11.4-7,17.1c1.5,3.8,4.8,5.7,5.8,6.3
			c4.6,2.6,8.2,1.4,13.2,2.2c3.8,0.5,9,2.3,14.8,7.6C311,197.7,306.9,188.6,302.7,179.6z"/>
		<path class="st2" d="M326.8,178.4c-1,5.2-4.2,7.2-6.8,11.5c-1.9,3.2-3.8,8.3-3.2,16.1c-2.3-4.3-4.6-8.8-6.9-13.4
			c-2.3-4.6-4.4-9.1-6.4-13.5c-1.9-5.8,0.2-12,4.6-14.8c6.3-4,14.7,0.2,17.6,5.6C327.7,173.5,327,177.3,326.8,178.4z"/>
	</g>
	<g>
		<path class="st2" d="M246.4,205.7c-3.3-5.2-9.3-7.5-14.3-6c-7.1,2.2-9.3,11.4-7,17.1c1.5,3.8,4.8,5.7,5.8,6.3
			c4.6,2.6,8.2,1.4,13.2,2.2c3.8,0.5,9,2.3,14.8,7.6C254.7,223.8,250.5,214.7,246.4,205.7z"/>
		<path class="st2" d="M270.5,204.5c-1,5.2-4.2,7.2-6.8,11.5c-1.9,3.2-3.8,8.3-3.2,16.1c-2.3-4.3-4.6-8.8-6.9-13.4
			c-2.3-4.6-4.4-9.1-6.4-13.5c-1.9-5.8,0.2-12,4.6-14.8c6.3-4,14.7,0.2,17.6,5.6C271.4,199.6,270.7,203.4,270.5,204.5z"/>
	</g>
	<g>
		<path class="st2" d="M269.8,106.4c-3.3-5.2-9.3-7.5-14.3-6c-7.1,2.2-9.3,11.4-7,17.1c1.5,3.8,4.8,5.7,5.8,6.3
			c4.6,2.6,8.2,1.4,13.2,2.2c3.8,0.5,9,2.3,14.8,7.6C278.2,124.5,274,115.4,269.8,106.4z"/>
		<path class="st2" d="M294,105.2c-1,5.2-4.2,7.2-6.8,11.5c-1.9,3.2-3.8,8.3-3.2,16.1c-2.3-4.3-4.6-8.8-6.9-13.4
			c-2.3-4.6-4.4-9.1-6.4-13.5c-1.9-5.8,0.2-12,4.6-14.8c6.3-4,14.7,0.2,17.6,5.6C294.8,100.3,294.2,104.1,294,105.2z"/>
	</g>
	<path class="st3" d="M164.6,109.2c-2.5-5.4-5-10.8-7.6-16.2c-1.9,4.5-3.7,9.1-5.6,13.6c4.8-2.2,9.6-4.5,14.3-6.7"/>
	<path class="st3" d="M380.7,231c-2.5-5.4-5-10.8-7.6-16.2c-1.9,4.5-3.7,9.1-5.6,13.6c4.8-2.2,9.6-4.5,14.3-6.7"/>
</g>
<g id="Layer_6">
	<path class="st4" d="M211.1,379.7l3.1,161.3c0.1,6.7-5.2,12.3-11.9,12.4l-223.4,4.2c-6.7,0.1-12.3-5.2-12.4-11.9l-3.1-161.3
		c-0.1-6.7,5.2-12.3,11.9-12.4l223.4-4.2C205.4,367.6,211,373,211.1,379.7z"/>
	<path class="st3" d="M-19.5,532.1c0.1,3.7,0.2,7.5,0.2,11.2c2.1-0.1,4.3-0.1,6.4-0.2c-2.2-3.8-1.5-7.9,0.8-9.7
		c1.4-1,3.5-1.3,5.3-0.5c1.9,0.8,3.4,2.7,3.4,4.9c0,2.5-2.1,4.8-4.9,5.2"/>
	<path class="st3" d="M178.9,384.1c0.1,3.7,0.2,7.5,0.2,11.2c2.1-0.1,4.3-0.1,6.4-0.2c-2.2-3.8-1.5-7.9,0.8-9.7
		c1.4-1,3.5-1.3,5.3-0.5c1.9,0.8,3.4,2.7,3.4,4.9c0,2.5-2.1,4.8-4.9,5.2"/>
	<g>
		<path class="st5" d="M93.3,463.3c6.1-0.9,10.7-5.4,11.3-10.6c0.8-7.4-6.6-13.1-12.7-13.4c-4.1-0.2-7.2,2.1-8.1,2.7
			c-4.3,3.1-4.7,6.9-7.4,11.2c-2,3.2-5.7,7.2-13,10.4C73.4,463.5,83.3,463.4,93.3,463.3z"/>
		<path class="st5" d="M84.5,485.8c-4.4-3-4.8-6.8-7.7-10.9c-2.2-3.1-6-6.9-13.4-9.5c4.9-0.3,9.9-0.6,15.1-0.8
			c5.1-0.2,10.1-0.3,14.9-0.3c6.1,0.7,10.9,5,11.6,10.3c1.1,7.3-6.2,13.3-12.3,13.8C88.6,488.6,85.4,486.5,84.5,485.8z"/>
	</g>
	<path class="st5" d="M112.2,455.2c0.1,5.6,0.2,11.2,0.3,16.8c-0.8-1.5-2.6-4.6-6.2-6.1c-3.5-1.5-6.9-0.8-9.1-0.3
		c-5.3,1.1-7.1,3.6-8.6,2.6c-1.8-1.2-1.3-6.4,1-7.7c1.6-0.9,2.9,0.8,7.2,1.7c2,0.4,5.6,1.1,9.1-0.4
		C109.5,460.1,111.4,456.9,112.2,455.2z"/>
	<g>
		<path class="st5" d="M142.9,462.9c-6.1,0.9-10.7,5.4-11.3,10.6c-0.8,7.4,6.6,13.1,12.7,13.4c4.1,0.2,7.2-2.1,8.1-2.8
			c4.3-3.1,4.7-6.9,7.4-11.2c2-3.2,5.7-7.3,13-10.4C162.8,462.6,152.9,462.7,142.9,462.9z"/>
		<path class="st5" d="M151.7,440.3c4.4,3,4.8,6.7,7.7,10.9c2.2,3.1,6,6.8,13.4,9.5c-4.9,0.3-9.9,0.6-15.1,0.8
			c-5.1,0.2-10.1,0.3-14.9,0.4c-6.1-0.6-10.9-5-11.6-10.2c-1.1-7.3,6.2-13.3,12.2-13.8C147.6,437.5,150.8,439.7,151.7,440.3z"/>
	</g>
	<path class="st5" d="M124.1,471c-0.1-5.6-0.2-11.2-0.3-16.8c0.8,1.5,2.6,4.6,6.2,6.1c3.5,1.5,6.9,0.8,9.1,0.3
		c5.3-1.1,7.1-3.6,8.6-2.6c1.8,1.2,1.3,6.4-1,7.7c-1.6,0.9-2.9-0.8-7.2-1.7c-2-0.4-5.6-1.1-9.1,0.4C126.7,466,124.9,469.3,124.1,471
		z"/>
	<g>
		<path class="st5" d="M86.9,414.6c0.9,6.1,5.4,10.7,10.7,11.2c7.4,0.8,13.1-6.7,13.4-12.8c0.2-4.1-2.1-7.2-2.8-8.1
			c-3.1-4.3-6.9-4.6-11.2-7.3c-3.2-2-7.3-5.7-10.5-12.9C86.6,394.6,86.7,404.6,86.9,414.6z"/>
		<path class="st5" d="M64.3,405.8c3-4.4,6.7-4.8,10.9-7.8c3.1-2.2,6.8-6,9.5-13.4c0.3,4.9,0.6,9.9,0.8,15.1
			c0.2,5.1,0.3,10.1,0.4,14.9c-0.6,6.1-5,10.9-10.2,11.6c-7.3,1.1-13.4-6.1-13.9-12.2C61.5,410,63.7,406.8,64.3,405.8z"/>
	</g>
	<path class="st5" d="M95.1,433.4c-5.6,0.1-11.2,0.2-16.8,0.3c1.5-0.8,4.6-2.7,6.1-6.2c1.5-3.5,0.7-6.9,0.3-9.1
		c-1.1-5.3-3.6-7.1-2.6-8.6c1.2-1.8,6.4-1.4,7.7,0.9c0.9,1.6-0.8,2.9-1.7,7.3c-0.4,2-1.1,5.6,0.5,9.1
		C90.1,430.8,93.3,432.6,95.1,433.4z"/>
	<g>
		<path class="st5" d="M89.2,513c-0.9-6.1-5.4-10.7-10.7-11.2c-7.4-0.8-13.1,6.7-13.3,12.8c-0.2,4.1,2.1,7.2,2.8,8.1
			c3.1,4.2,6.9,4.6,11.2,7.3c3.2,2,7.3,5.7,10.5,12.9C89.5,532.9,89.3,523,89.2,513z"/>
		<path class="st5" d="M111.7,521.7c-3,4.4-6.7,4.8-10.9,7.8c-3.1,2.2-6.8,6-9.5,13.5c-0.4-4.9-0.6-9.9-0.9-15.1
			c-0.2-5.1-0.4-10.1-0.4-14.9c0.6-6.1,5-10.9,10.2-11.7c7.3-1.1,13.4,6.1,13.9,12.2C114.5,517.5,112.4,520.8,111.7,521.7z"/>
	</g>
	<path class="st5" d="M80.9,494.2c5.6-0.1,11.2-0.2,16.8-0.4c-1.5,0.8-4.6,2.7-6.1,6.2c-1.5,3.5-0.7,6.9-0.3,9.1
		c1.1,5.3,3.6,7.1,2.6,8.6c-1.2,1.8-6.4,1.4-7.7-0.9c-0.9-1.6,0.8-2.9,1.6-7.3c0.4-2,1.1-5.6-0.5-9.1
		C85.9,496.8,82.7,495,80.9,494.2z"/>
	<g>
		<path class="st5" d="M33.6,463.7c6.1-0.9,10.7-5.4,11.3-10.6c0.8-7.4-6.6-13.1-12.7-13.4c-4.1-0.2-7.2,2.1-8.1,2.7
			c-4.3,3.1-4.7,6.9-7.4,11.2c-2,3.2-5.7,7.2-13,10.4C13.6,463.9,23.6,463.8,33.6,463.7z"/>
		<path class="st5" d="M24.7,486.2c-4.4-3-4.8-6.8-7.7-10.9c-2.2-3.1-6-6.9-13.4-9.5c4.9-0.3,9.9-0.6,15.1-0.8
			c5.1-0.2,10.1-0.3,14.9-0.3c6.1,0.7,10.9,5,11.6,10.3c1.1,7.3-6.2,13.3-12.3,13.8C28.9,489,25.7,486.8,24.7,486.2z"/>
	</g>
	<path class="st5" d="M52.4,455.5c0.1,5.6,0.2,11.2,0.3,16.8c-0.8-1.5-2.6-4.6-6.2-6.1c-3.5-1.5-6.9-0.8-9.1-0.3
		c-5.3,1.1-7.1,3.6-8.6,2.6c-1.8-1.2-1.3-6.4,1-7.7c1.6-0.9,2.9,0.8,7.2,1.7c2,0.4,5.6,1.1,9.1-0.4
		C49.8,460.5,51.6,457.3,52.4,455.5z"/>
</g>
<g id="Layer_7">
	
		<linearGradient id="SVGID_2_" gradientUnits="userSpaceOnUse" x1="146.2979" y1="111.3581" x2="331.9728" y2="111.3581" gradientTransform="matrix(0.3612 -0.928 0.9336 0.3633 -105.8386 530.5599)">
		<stop  offset="0" style="stop-color:#000000"/>
		<stop  offset="2.469952e-02" style="stop-color:#FFFFFF"/>
	</linearGradient>
	<path class="st6" d="M229.3,319.3l-58.2,149.6c-2.4,6.2-9.5,9.4-15.7,6.9l-208.7-81.2c-6.2-2.4-9.4-9.5-6.9-15.7l58.2-149.6
		c2.4-6.2,9.5-9.4,15.7-6.9l208.7,81.2C228.6,306,231.7,313.1,229.3,319.3z"/>
	<path class="st4" d="M-59.6,374.1l58.5-150.3c2.4-6.2,9.5-9.4,15.8-6.9l208.3,81c6.2,2.4,9.4,9.5,6.9,15.8l-58.5,150.3
		c-2.4,6.2-9.5,9.4-15.8,6.9l-208.3-81C-58.9,387.4-62.1,380.3-59.6,374.1z"/>
	<path class="st7" d="M-50.8,376.2c1.2-3.2,2.4-6.4,3.6-9.7c1.3,2.1,3.3,4.8,6.3,7.5c2.6,2.3,5.2,3.9,7.2,4.9"/>
	<path class="st3" d="M197.9,316.3c1.2-3.2,2.4-6.4,3.6-9.7c1.3,2.1,3.3,4.8,6.3,7.5c2.6,2.3,5.2,3.9,7.2,4.9"/>
	
		<rect x="99" y="366.4" transform="matrix(0.9153 -0.4028 0.4028 0.9153 -144.6109 79.6285)" class="st8" width="36.1" height="34.4"/>
	
		<rect x="81.2" y="275.4" transform="matrix(0.9153 -0.4028 0.4028 0.9153 -109.448 64.7683)" class="st8" width="36.1" height="34.4"/>
	
		<rect x="60.4" y="324.8" transform="matrix(0.9153 -0.4028 0.4028 0.9153 -131.1166 60.5911)" class="st8" width="36.1" height="34.4"/>
	
		<rect x="40" y="374.7" transform="matrix(0.9153 -0.4028 0.4028 0.9153 -152.9188 56.5662)" class="st8" width="36.1" height="34.4"/>
	
		<rect x="21.1" y="280" transform="matrix(0.9153 -0.4028 0.4028 0.9153 -116.3931 40.9586)" class="st8" width="36.1" height="34.4"/>
	
		<rect x="0" y="330.2" transform="matrix(0.9153 -0.4028 0.4028 0.9153 -138.3839 36.6803)" class="st8" width="36.1" height="34.4"/>
	
		<rect x="119.7" y="316.9" transform="matrix(0.9153 -0.4028 0.4028 0.9153 -122.9114 83.7829)" class="st8" width="36.1" height="34.4"/>
</g>
<g id="Layer_3">
	<path class="st4" d="M619.6,370.4l-114.1-114c-4.7-4.7-4.7-12.5,0-17.2l158-158.1c4.7-4.7,12.5-4.7,17.2,0l114.1,114
		c4.7,4.7,4.7,12.5,0,17.2l-158,158.1C632.1,375.2,624.4,375.2,619.6,370.4z"/>
	<path class="st4" d="M619.6,370.4l-114.1-114c-4.7-4.7-4.7-12.5,0-17.2l158-158.1c4.7-4.7,12.5-4.7,17.2,0l114.1,114
		c4.7,4.7,4.7,12.5,0,17.2l-158,158.1C632.1,375.2,624.4,375.2,619.6,370.4z"/>
	<path class="st7" d="M669.8,97.1c0.3,0.3,1.4,1.2,3.1,1.2c1.8,0,3-1,3.3-1.2c0.6,0.5,1.1,1.1,1.7,1.6c-3.9,4-7.9,7.9-11.8,11.9"/>
	<path class="st7" d="M628,342.5c0.3,0.3,1.4,1.2,3.1,1.2c1.8,0,3-1,3.3-1.2c0.6,0.5,1.1,1.1,1.7,1.6c-3.9,4-7.9,7.9-11.8,11.9"/>
	
		<rect x="627.6" y="205.9" transform="matrix(3.047300e-04 1 -1 3.047300e-04 875.8626 -421.8199)" class="st8" width="42.5" height="42.5"/>
</g>
<g id="Layer_4">
	
		<linearGradient id="SVGID_3_" gradientUnits="userSpaceOnUse" x1="695.6841" y1="-54.8729" x2="881.3589" y2="-54.8729" gradientTransform="matrix(6.123234e-17 1 -1 6.123234e-17 687.8505 -320.1664)">
		<stop  offset="0.9333" style="stop-color:#FFFFFF"/>
		<stop  offset="1" style="stop-color:#000000"/>
	</linearGradient>
	<path class="st9" d="M618.8,549V387.7c0-6.7,5.5-12.2,12.2-12.2h223.5c6.7,0,12.2,5.5,12.2,12.2V549c0,6.7-5.5,12.2-12.2,12.2H631
		C624.3,561.2,618.8,555.7,618.8,549z"/>
	<path class="st4" d="M618.9,547.6l-1.7-161.3c-0.1-6.7,5.4-12.2,12.1-12.3l223.5-2.3c6.7-0.1,12.2,5.4,12.3,12.1l1.7,161.3
		c0.1,6.7-5.4,12.2-12.1,12.3l-223.5,2.3C624.5,559.8,619,554.3,618.9,547.6z"/>
	<path class="st3" d="M850.8,397.2c0-3.7-0.1-7.5-0.1-11.2c-2.1,0-4.3,0.1-6.4,0.1c2.2,3.8,1.5,7.9-0.9,9.7c-1.4,1-3.5,1.3-5.3,0.5
		c-1.9-0.8-3.4-2.7-3.3-5c0.1-2.5,2.1-4.8,4.9-5.2"/>
	<path class="st3" d="M651.1,543.5c0-3.7-0.1-7.5-0.1-11.2c-2.1,0-4.3,0.1-6.4,0.1c2.2,3.8,1.5,7.9-0.9,9.7c-1.4,1-3.5,1.3-5.3,0.5
		c-1.9-0.8-3.4-2.7-3.3-5c0.1-2.5,2.1-4.8,4.9-5.2"/>
	<g>
		<path class="st2" d="M737.4,465c-6.1,0.8-10.7,5.3-11.4,10.5c-0.9,7.4,6.5,13.2,12.6,13.5c4.1,0.2,7.2-2,8.1-2.7
			c4.3-3.1,4.7-6.8,7.5-11.1c2.1-3.2,5.8-7.2,13.1-10.3C757.3,465,747.4,465,737.4,465z"/>
		<path class="st2" d="M746.4,442.6c4.3,3,4.8,6.8,7.6,11c2.1,3.1,6,6.9,13.3,9.6c-4.9,0.3-9.9,0.5-15.1,0.7
			c-5.1,0.1-10.1,0.2-14.9,0.2c-6.1-0.7-10.8-5.1-11.5-10.4c-1-7.4,6.3-13.3,12.4-13.7C742.3,439.7,745.5,441.9,746.4,442.6z"/>
	</g>
	<path class="st2" d="M718.5,473c0-5.6-0.1-11.2-0.1-16.8c0.8,1.6,2.6,4.6,6.2,6.2c3.5,1.5,6.9,0.8,9.1,0.4c5.3-1.1,7.2-3.5,8.6-2.5
		c1.8,1.2,1.3,6.4-1,7.6c-1.6,0.8-2.9-0.9-7.2-1.8c-1.9-0.4-5.6-1.1-9.1,0.3C721.2,468,719.3,471.2,718.5,473z"/>
	<g>
		<path class="st2" d="M687.8,465c6.1-0.8,10.7-5.3,11.4-10.5c0.9-7.4-6.5-13.2-12.6-13.5c-4.1-0.2-7.2,2-8.1,2.7
			c-4.3,3.1-4.7,6.8-7.5,11.1c-2.1,3.2-5.8,7.2-13.1,10.3C667.9,465.1,677.9,465.1,687.8,465z"/>
		<path class="st2" d="M678.8,487.5c-4.3-3-4.8-6.8-7.7-11c-2.1-3.1-6-6.9-13.3-9.6c4.9-0.3,9.9-0.5,15.1-0.7
			c5.1-0.2,10.1-0.2,14.9-0.2c6.1,0.7,10.8,5.1,11.5,10.3c1,7.4-6.3,13.3-12.4,13.7C682.9,490.3,679.8,488.1,678.8,487.5z"/>
	</g>
	<path class="st2" d="M706.7,457.1c0,5.6,0.1,11.2,0.1,16.8c-0.8-1.6-2.6-4.6-6.2-6.2c-3.5-1.5-6.9-0.8-9.1-0.4
		c-5.3,1.1-7.2,3.5-8.6,2.5c-1.8-1.2-1.3-6.4,1-7.6c1.6-0.8,2.9,0.9,7.2,1.7c1.9,0.4,5.6,1.1,9.1-0.4
		C704,462,705.9,458.8,706.7,457.1z"/>
	<g>
		<path class="st2" d="M743.4,513.8c-0.8-6.1-5.3-10.7-10.6-11.3c-7.4-0.9-13.2,6.6-13.5,12.6c-0.2,4.1,2,7.2,2.7,8.1
			c3.1,4.3,6.9,4.7,11.1,7.4c3.2,2.1,7.2,5.8,10.4,13C743.6,533.7,743.5,523.8,743.4,513.8z"/>
		<path class="st2" d="M765.9,522.7c-3,4.4-6.8,4.8-11,7.7c-3.1,2.1-6.9,6-9.6,13.4c-0.3-4.9-0.5-9.9-0.7-15.1
			c-0.2-5.1-0.3-10.1-0.3-14.9c0.7-6.1,5.1-10.8,10.3-11.6c7.3-1,13.3,6.2,13.8,12.3C768.7,518.6,766.5,521.8,765.9,522.7z"/>
	</g>
	<path class="st2" d="M735.4,494.9c5.6-0.1,11.2-0.1,16.8-0.2c-1.6,0.8-4.6,2.6-6.2,6.2c-1.5,3.5-0.8,6.9-0.4,9.1
		c1.1,5.3,3.5,7.1,2.5,8.6c-1.2,1.8-6.4,1.3-7.7-1c-0.9-1.6,0.8-2.9,1.7-7.2c0.4-1.9,1.1-5.6-0.4-9.1
		C740.3,497.6,737.1,495.7,735.4,494.9z"/>
	<g>
		<path class="st2" d="M742,415.4c0.8,6.1,5.4,10.7,10.6,11.3c7.4,0.9,13.1-6.6,13.4-12.7c0.2-4.1-2.1-7.2-2.7-8.1
			c-3.1-4.3-6.9-4.7-11.1-7.4c-3.2-2-7.2-5.8-10.4-13C741.8,395.4,741.9,405.4,742,415.4z"/>
		<path class="st2" d="M719.5,406.5c3-4.4,6.8-4.8,11-7.7c3.1-2.2,6.9-6,9.6-13.4c0.3,4.9,0.6,9.9,0.7,15.1
			c0.2,5.1,0.3,10.1,0.3,14.9c-0.7,6.1-5.1,10.8-10.3,11.6c-7.3,1.1-13.3-6.2-13.8-12.3C716.7,410.6,718.8,407.4,719.5,406.5z"/>
	</g>
	<path class="st2" d="M750,434.2c-5.6,0.1-11.2,0.1-16.8,0.2c1.6-0.8,4.6-2.6,6.2-6.2c1.5-3.5,0.8-6.9,0.3-9.1
		c-1.1-5.3-3.5-7.1-2.5-8.6c1.2-1.8,6.4-1.3,7.7,1c0.9,1.6-0.8,2.9-1.7,7.2c-0.4,1.9-1.1,5.6,0.4,9.1
		C745.1,431.6,748.3,433.4,750,434.2z"/>
	<g>
		<path class="st2" d="M797.2,465.2c-6.1,0.8-10.7,5.3-11.4,10.5c-0.9,7.4,6.5,13.2,12.6,13.5c4.1,0.2,7.2-2,8.1-2.7
			c4.3-3.1,4.7-6.8,7.5-11.1c2.1-3.2,5.8-7.2,13.1-10.3C817.1,465.1,807.1,465.1,797.2,465.2z"/>
		<path class="st2" d="M806.2,442.7c4.3,3,4.8,6.8,7.6,11c2.1,3.1,6,6.9,13.3,9.6c-4.9,0.3-9.9,0.5-15.1,0.7
			c-5.1,0.1-10.1,0.2-14.9,0.2c-6.1-0.7-10.8-5.1-11.5-10.4c-1-7.4,6.3-13.3,12.4-13.7C802.1,439.9,805.2,442.1,806.2,442.7z"/>
	</g>
	<path class="st2" d="M778.2,473.1c0-5.6-0.1-11.2-0.1-16.8c0.8,1.6,2.6,4.6,6.2,6.2c3.5,1.5,6.9,0.8,9.1,0.4
		c5.3-1.1,7.2-3.5,8.6-2.5c1.8,1.2,1.3,6.4-1,7.6c-1.6,0.8-2.9-0.9-7.2-1.8c-1.9-0.4-5.6-1.1-9.1,0.3
		C780.9,468.2,779.1,471.4,778.2,473.1z"/>
</g>
<g id="Layer_5">
	
		<linearGradient id="SVGID_4_" gradientUnits="userSpaceOnUse" x1="83.9047" y1="221.0421" x2="269.5796" y2="221.0421" gradientTransform="matrix(0.6746 -0.7382 0.7382 0.6746 -141.0875 231.383)">
		<stop  offset="0" style="stop-color:#000000"/>
		<stop  offset="7.017227e-02" style="stop-color:#F6F6F6"/>
		<stop  offset="1" style="stop-color:#FFFFFF"/>
	</linearGradient>
	<path class="st10" d="M287.2,274.1L178.4,393.2c-4.5,4.9-12.3,5.3-17.2,0.8l-165-150.8c-4.9-4.5-5.3-12.3-0.8-17.2l108.8-119.1
		c4.5-4.9,12.3-5.3,17.2-0.8l165,150.8C291.4,261.4,291.7,269.2,287.2,274.1z"/>
	<path class="st4" d="M290.5,271.4L180.3,389.2c-4.6,4.9-12.3,5.2-17.2,0.6L-0.1,237.1c-4.9-4.6-5.2-12.3-0.6-17.2l110.2-117.8
		c4.6-4.9,12.3-5.2,17.2-0.6l163.2,152.7C294.8,258.8,295.1,266.5,290.5,271.4z"/>
	
		<rect x="93.7" y="198.2" transform="matrix(3.330651e-02 0.9994 -0.9994 3.330651e-02 330.5615 97.2581)" class="st8" width="42.5" height="42.5"/>
	
		<rect x="627.6" y="205.9" transform="matrix(3.047300e-04 1 -1 3.047300e-04 875.8626 -421.8199)" class="st8" width="42.5" height="42.5"/>
	
		<rect x="149.1" y="249.4" transform="matrix(0.9994 -3.330651e-02 3.330651e-02 0.9994 -8.9206 5.8246)" class="st8" width="42.5" height="42.5"/>
	<path class="st3" d="M262.8,261.5c-0.3-0.7-0.8-2.3-0.2-4.2c0.8-2.5,3.6-4.8,5.8-4.2c1,0.3,1.9,1.1,2.3,2.1
		c0.9,2.1-0.8,3.8-1.2,6.6c-0.2,1.6,0,4,1.9,7c2.5-2.7,4.9-5.4,7.4-8.2"/>
	<path class="st3" d="M15.5,229.5c-0.3-0.7-0.8-2.3-0.2-4.2c0.8-2.5,3.6-4.8,5.8-4.2c1,0.3,1.9,1.1,2.3,2.1c0.9,2.1-0.8,3.8-1.2,6.6
		c-0.2,1.6,0,4,1.9,7c2.5-2.7,4.9-5.4,7.4-8.2"/>
</g>
<g id="Layer_8">
	
		<linearGradient id="SVGID_5_" gradientUnits="userSpaceOnUse" x1="359.4295" y1="125.891" x2="545.1044" y2="125.891" gradientTransform="matrix(0.9568 0.2909 -0.2909 0.9568 137.9564 -101.6975)">
		<stop  offset="0.9916" style="stop-color:#FFFFFF"/>
		<stop  offset="1" style="stop-color:#000000"/>
	</linearGradient>
	<path class="st11" d="M575.2,292.3l-154.3-46.9c-6.4-1.9-10.1-8.8-8.1-15.2l65-213.8c1.9-6.4,8.8-10.1,15.2-8.1l154.3,46.9
		c6.4,1.9,10.1,8.8,8.1,15.2l-65,213.8C588.4,290.6,581.6,294.3,575.2,292.3z"/>
	
		<linearGradient id="SVGID_6_" gradientUnits="userSpaceOnUse" x1="357.2687" y1="102.0206" x2="542.9435" y2="102.0206" gradientTransform="matrix(0.3277 0.9448 -0.9448 0.3277 678.443 -121.2992)">
		<stop  offset="0.9916" style="stop-color:#FFFFFF"/>
		<stop  offset="1" style="stop-color:#000000"/>
	</linearGradient>
	<path class="st12" d="M638.9,454.2l-52.9-152.4c-2.2-6.3,1.2-13.3,7.5-15.5l211.1-73.2c6.3-2.2,13.3,1.2,15.5,7.5L873.1,373
		c2.2,6.3-1.2,13.3-7.5,15.5l-211.1,73.2C648.1,463.9,641.1,460.5,638.9,454.2z"/>
	<g>
		<ellipse transform="matrix(0.9448 -0.3277 0.3277 0.9448 -54.8089 254.0445)" cx="726.4" cy="289.6" rx="8.5" ry="8.5"/>
		<ellipse transform="matrix(0.9448 -0.3277 0.3277 0.9448 -61.375 257.6884)" cx="733.9" cy="310.9" rx="8.5" ry="8.5"/>
		<ellipse transform="matrix(0.9448 -0.3277 0.3277 0.9448 -56.1583 259.2695)" cx="741.2" cy="296.3" rx="8.5" ry="8.5"/>
		<path d="M714.4,299.9c1.1,3.2,2.2,6.5,3.4,9.7c0.2-0.4,2.1-4.8,6.4-5.6c1.8-0.3,3.4,0.1,4.3,0.4c0.7-0.4,1-0.4,1.2-0.3
			c0.4,0.2,0.4,0.9,0.4,0.9c0,0-0.1-0.2-0.1-0.3c4.1,0.4,7.5-0.9,8.1-2.8c0.4-1.2-0.8-3-3-6.7c-1.3-2-1.6-2.2-1.9-2.3
			c-1.4-0.2-2.4,1.9-6.7,4.9c-0.2,0.1-0.3,0.2-0.4,0.3c-0.5,0.8-1.4,1.8-2.8,2.5C719.1,302.6,714.8,300.1,714.4,299.9z"/>
		
			<linearGradient id="SVGID_7_" gradientUnits="userSpaceOnUse" x1="411.7178" y1="93.4543" x2="411.7178" y2="93.4543" gradientTransform="matrix(0.3277 0.9448 -0.9448 0.3277 678.443 -121.2992)">
			<stop  offset="0.9916" style="stop-color:#FFFFFF"/>
			<stop  offset="1" style="stop-color:#000000"/>
		</linearGradient>
		<path class="st13" d="M725.1,298.3"/>
	</g>
	<g>
		<ellipse transform="matrix(0.9448 -0.3277 0.3277 0.9448 -68.2603 228.1353)" cx="642.8" cy="316.6" rx="8.5" ry="8.5"/>
		<ellipse transform="matrix(0.9448 -0.3277 0.3277 0.9448 -74.8263 231.7791)" cx="650.3" cy="337.9" rx="8.5" ry="8.5"/>
		<ellipse transform="matrix(0.9448 -0.3277 0.3277 0.9448 -69.6097 233.3602)" cx="657.6" cy="323.2" rx="8.5" ry="8.5"/>
		<path d="M630.8,326.8c1.1,3.2,2.2,6.5,3.4,9.7c0.2-0.4,2.1-4.8,6.4-5.6c1.8-0.3,3.4,0.1,4.3,0.4c0.7-0.4,1-0.4,1.2-0.3
			c0.4,0.2,0.4,0.9,0.4,0.9c0,0-0.1-0.2-0.1-0.3c4.1,0.4,7.5-0.9,8.1-2.8c0.4-1.2-0.8-3-3-6.7c-1.3-2-1.6-2.2-1.9-2.3
			c-1.4-0.2-2.4,1.9-6.7,4.9c-0.2,0.1-0.3,0.2-0.4,0.3c-0.5,0.8-1.4,1.8-2.8,2.5C635.5,329.5,631.2,327.1,630.8,326.8z"/>
		
			<linearGradient id="SVGID_8_" gradientUnits="userSpaceOnUse" x1="409.7878" y1="181.2723" x2="409.7878" y2="181.2723" gradientTransform="matrix(0.3277 0.9448 -0.9448 0.3277 678.443 -121.2992)">
			<stop  offset="0.9916" style="stop-color:#FFFFFF"/>
			<stop  offset="1" style="stop-color:#000000"/>
		</linearGradient>
		<path class="st14" d="M641.5,325.3"/>
	</g>
	<g>
		<ellipse transform="matrix(0.9448 -0.3277 0.3277 0.9448 -61.4141 240.9657)" cx="684.3" cy="302.7" rx="8.5" ry="8.5"/>
		<ellipse transform="matrix(0.9448 -0.3277 0.3277 0.9448 -67.9801 244.6095)" cx="691.8" cy="324" rx="8.5" ry="8.5"/>
		<ellipse transform="matrix(0.9448 -0.3277 0.3277 0.9448 -62.7635 246.1906)" cx="699.1" cy="309.3" rx="8.5" ry="8.5"/>
		<path d="M672.3,312.9c1.1,3.2,2.2,6.5,3.4,9.7c0.2-0.4,2.1-4.8,6.4-5.6c1.8-0.3,3.4,0.1,4.3,0.4c0.7-0.4,1-0.4,1.2-0.3
			c0.4,0.2,0.4,0.9,0.4,0.9c0,0-0.1-0.2-0.1-0.3c4.1,0.4,7.5-0.9,8.1-2.8c0.4-1.2-0.8-3-3-6.7c-1.3-2-1.6-2.2-1.9-2.3
			c-1.4-0.2-2.4,1.9-6.7,4.9c-0.2,0.1-0.3,0.2-0.4,0.3c-0.5,0.8-1.4,1.8-2.8,2.5C676.9,315.6,672.7,313.2,672.3,312.9z"/>
		
			<linearGradient id="SVGID_9_" gradientUnits="userSpaceOnUse" x1="410.2552" y1="137.5171" x2="410.2552" y2="137.5171" gradientTransform="matrix(0.3277 0.9448 -0.9448 0.3277 678.443 -121.2992)">
			<stop  offset="0.9916" style="stop-color:#FFFFFF"/>
			<stop  offset="1" style="stop-color:#000000"/>
		</linearGradient>
		<path class="st15" d="M683,311.4"/>
	</g>
	<g>
		<ellipse transform="matrix(0.9448 -0.3277 0.3277 0.9448 -48.2891 267.0352)" cx="768.2" cy="276.8" rx="8.5" ry="8.5"/>
		<ellipse transform="matrix(0.9448 -0.3277 0.3277 0.9448 -54.8552 270.6791)" cx="775.7" cy="298.1" rx="8.5" ry="8.5"/>
		<ellipse transform="matrix(0.9448 -0.3277 0.3277 0.9448 -49.6385 272.2602)" cx="783" cy="283.4" rx="8.5" ry="8.5"/>
		<path d="M756.2,287c1.1,3.2,2.2,6.5,3.4,9.7c0.2-0.4,2.1-4.8,6.4-5.6c1.8-0.3,3.4,0.1,4.3,0.4c0.7-0.4,1-0.4,1.2-0.3
			c0.4,0.2,0.4,0.9,0.4,0.9c0,0-0.1-0.2-0.1-0.3c4.1,0.4,7.5-0.9,8.1-2.8c0.4-1.2-0.8-3-3-6.7c-1.3-2-1.6-2.2-1.9-2.3
			c-1.4-0.2-2.4,1.9-6.7,4.9c-0.2,0.1-0.3,0.2-0.4,0.3c-0.5,0.8-1.4,1.8-2.8,2.5C760.9,289.7,756.6,287.3,756.2,287z"/>
		
			<linearGradient id="SVGID_10_" gradientUnits="userSpaceOnUse" x1="413.2784" y1="49.7474" x2="413.2784" y2="49.7474" gradientTransform="matrix(0.3277 0.9448 -0.9448 0.3277 678.443 -121.2992)">
			<stop  offset="0.9916" style="stop-color:#FFFFFF"/>
			<stop  offset="1" style="stop-color:#000000"/>
		</linearGradient>
		<path class="st16" d="M766.9,285.5"/>
	</g>
	<g>
		<ellipse transform="matrix(0.9448 -0.3277 0.3277 0.9448 -73.5281 264.2476)" cx="747.3" cy="350.3" rx="8.5" ry="8.5"/>
		<ellipse transform="matrix(0.9448 -0.3277 0.3277 0.9448 -80.0942 267.8914)" cx="754.8" cy="371.6" rx="8.5" ry="8.5"/>
		<ellipse transform="matrix(0.9448 -0.3277 0.3277 0.9448 -74.8775 269.4725)" cx="762.1" cy="356.9" rx="8.5" ry="8.5"/>
		<path d="M735.3,360.5c1.1,3.2,2.2,6.5,3.4,9.7c0.2-0.4,2.1-4.8,6.4-5.6c1.8-0.3,3.4,0.1,4.3,0.4c0.7-0.4,1-0.4,1.2-0.3
			c0.4,0.2,0.4,0.9,0.4,0.9c0,0-0.1-0.2-0.1-0.3c4.1,0.4,7.5-0.9,8.1-2.8c0.4-1.2-0.8-3-3-6.7c-1.3-2-1.6-2.2-1.9-2.3
			c-1.4-0.2-2.4,1.9-6.7,4.9c-0.2,0.1-0.3,0.2-0.4,0.3c-0.5,0.8-1.4,1.8-2.8,2.5C740,363.2,735.7,360.8,735.3,360.5z"/>
		
			<linearGradient id="SVGID_11_" gradientUnits="userSpaceOnUse" x1="475.8657" y1="93.5698" x2="475.8657" y2="93.5698" gradientTransform="matrix(0.3277 0.9448 -0.9448 0.3277 678.443 -121.2992)">
			<stop  offset="0.9916" style="stop-color:#FFFFFF"/>
			<stop  offset="1" style="stop-color:#000000"/>
		</linearGradient>
		<path class="st17" d="M746,359"/>
	</g>
	<g>
		<ellipse transform="matrix(0.9448 -0.3277 0.3277 0.9448 -86.9795 238.3383)" cx="663.7" cy="377.2" rx="8.5" ry="8.5"/>
		<ellipse transform="matrix(0.9448 -0.3277 0.3277 0.9448 -93.5455 241.9821)" cx="671.2" cy="398.5" rx="8.5" ry="8.5"/>
		<ellipse transform="matrix(0.9448 -0.3277 0.3277 0.9448 -88.3289 243.5633)" cx="678.5" cy="383.9" rx="8.5" ry="8.5"/>
		<path d="M651.7,387.5c1.1,3.2,2.2,6.5,3.4,9.7c0.2-0.4,2.1-4.8,6.4-5.6c1.8-0.3,3.4,0.1,4.3,0.4c0.7-0.4,1-0.4,1.2-0.3
			c0.4,0.2,0.4,0.9,0.4,0.9c0,0-0.1-0.2-0.1-0.3c4.1,0.4,7.5-0.9,8.1-2.8c0.4-1.2-0.8-3-3-6.7c-1.3-2-1.6-2.2-1.9-2.3
			c-1.4-0.2-2.4,1.9-6.7,4.9c-0.2,0.1-0.3,0.2-0.4,0.3c-0.5,0.8-1.4,1.8-2.8,2.5C656.4,390.2,652.1,387.7,651.7,387.5z"/>
		
			<linearGradient id="SVGID_12_" gradientUnits="userSpaceOnUse" x1="473.9356" y1="181.3878" x2="473.9356" y2="181.3878" gradientTransform="matrix(0.3277 0.9448 -0.9448 0.3277 678.443 -121.2992)">
			<stop  offset="0.9916" style="stop-color:#FFFFFF"/>
			<stop  offset="1" style="stop-color:#000000"/>
		</linearGradient>
		<path class="st18" d="M662.4,385.9"/>
	</g>
	<g>
		<ellipse transform="matrix(0.9448 -0.3277 0.3277 0.9448 -80.1333 251.1687)" cx="705.2" cy="363.3" rx="8.5" ry="8.5"/>
		<ellipse transform="matrix(0.9448 -0.3277 0.3277 0.9448 -86.6993 254.8125)" cx="712.7" cy="384.7" rx="8.5" ry="8.5"/>
		<ellipse transform="matrix(0.9448 -0.3277 0.3277 0.9448 -81.4827 256.3937)" cx="720" cy="370" rx="8.5" ry="8.5"/>
		<path d="M693.2,373.6c1.1,3.2,2.2,6.5,3.4,9.7c0.2-0.4,2.1-4.8,6.4-5.6c1.8-0.3,3.4,0.1,4.3,0.4c0.7-0.4,1-0.4,1.2-0.3
			c0.4,0.2,0.4,0.9,0.4,0.9c0,0-0.1-0.2-0.1-0.3c4.1,0.4,7.5-0.9,8.1-2.8c0.4-1.2-0.8-3-3-6.7c-1.3-2-1.6-2.2-1.9-2.3
			c-1.4-0.2-2.4,1.9-6.7,4.9c-0.2,0.1-0.3,0.2-0.4,0.3c-0.5,0.8-1.4,1.8-2.8,2.5C697.9,376.3,693.6,373.8,693.2,373.6z"/>
		
			<linearGradient id="SVGID_13_" gradientUnits="userSpaceOnUse" x1="474.403" y1="137.6325" x2="474.403" y2="137.6325" gradientTransform="matrix(0.3277 0.9448 -0.9448 0.3277 678.443 -121.2992)">
			<stop  offset="0.9916" style="stop-color:#FFFFFF"/>
			<stop  offset="1" style="stop-color:#000000"/>
		</linearGradient>
		<path class="st19" d="M703.9,372"/>
	</g>
	<g>
		<ellipse transform="matrix(0.9448 -0.3277 0.3277 0.9448 -67.0083 277.2383)" cx="789.1" cy="337.4" rx="8.5" ry="8.5"/>
		<ellipse transform="matrix(0.9448 -0.3277 0.3277 0.9448 -73.5744 280.8821)" cx="796.6" cy="358.7" rx="8.5" ry="8.5"/>
		<ellipse transform="matrix(0.9448 -0.3277 0.3277 0.9448 -68.3577 282.4633)" cx="803.9" cy="344.1" rx="8.5" ry="8.5"/>
		<path d="M777.1,347.7c1.1,3.2,2.2,6.5,3.4,9.7c0.2-0.4,2.1-4.8,6.4-5.6c1.8-0.3,3.4,0.1,4.3,0.4c0.7-0.4,1-0.4,1.2-0.3
			c0.4,0.2,0.4,0.9,0.4,0.9c0,0-0.1-0.2-0.1-0.3c4.1,0.4,7.5-0.9,8.1-2.8c0.4-1.2-0.8-3-3-6.7c-1.3-2-1.6-2.2-1.9-2.3
			c-1.4-0.2-2.4,1.9-6.7,4.9c-0.2,0.1-0.3,0.2-0.4,0.3c-0.5,0.8-1.4,1.8-2.8,2.5C781.8,350.3,777.5,347.9,777.1,347.7z"/>
		
			<linearGradient id="SVGID_14_" gradientUnits="userSpaceOnUse" x1="477.4262" y1="49.8629" x2="477.4262" y2="49.8629" gradientTransform="matrix(0.3277 0.9448 -0.9448 0.3277 678.443 -121.2992)">
			<stop  offset="0.9916" style="stop-color:#FFFFFF"/>
			<stop  offset="1" style="stop-color:#000000"/>
		</linearGradient>
		<path class="st20" d="M787.8,346.1"/>
	</g>
	<path class="st3" d="M808.8,239.2c1.5-0.6,2.7-2.5,2.1-4.5c-0.6-2-2.9-2.9-4.4-2.4c-2.2,0.7-3.1,3.6-2.6,5c0.1,0.2,0.2,0.6,0.3,1.2
		c0.1,0.4,0.1,1.2-0.1,2c-0.4,1.1-1.2,1.7-1.5,1.9c-1.4,1-3.5,1.2-5.2,0.1c-1.8-1.1-2.5-3.5-1.7-5.4c0.6-1.5,2.1-2.5,3.5-2.7
		c0.3-0.1,1-0.2,1.8,0.1c0.9,0.3,1.4,0.8,1.9,1.3c0.6,0.6,0.8,1,1,1.3C804.7,238.4,806.9,239.9,808.8,239.2z"/>
	<path class="st3" d="M662.9,439.7c1.5-0.6,2.7-2.5,2.1-4.5c-0.6-2-2.9-2.9-4.4-2.4c-2.2,0.7-3.1,3.6-2.6,5c0.1,0.2,0.2,0.6,0.3,1.2
		c0.1,0.4,0.1,1.2-0.1,2c-0.4,1.1-1.2,1.7-1.5,1.9c-1.4,1-3.5,1.2-5.2,0.1c-1.8-1.1-2.5-3.5-1.7-5.4c0.6-1.5,2.1-2.5,3.5-2.7
		c0.3-0.1,1-0.2,1.8,0.1c0.9,0.3,1.4,0.8,1.9,1.3c0.6,0.6,0.8,1,1,1.3C658.8,438.9,661,440.4,662.9,439.7z"/>
	<g>
		<ellipse transform="matrix(0.3069 -0.9517 0.9517 0.3069 271.7525 544.469)" cx="509.7" cy="85.7" rx="8.5" ry="8.5"/>
		<ellipse transform="matrix(0.3069 -0.9517 0.9517 0.3069 280.2047 569.6936)" cx="531.2" cy="92.5" rx="8.5" ry="8.5"/>
		<ellipse transform="matrix(0.3069 -0.9517 0.9517 0.3069 289.0811 552.5436)" cx="523.9" cy="77.8" rx="8.5" ry="8.5"/>
		<path d="M510.7,101.4c3.3,1.1,6.5,2.1,9.8,3.2c-0.2-0.4-2.6-4.5-0.6-8.5c0.8-1.7,2.1-2.7,2.9-3.2c0.1-0.8,0.3-1,0.5-1.1
			c0.4-0.2,1,0.2,1,0.2c0,0-0.2-0.1-0.3-0.1c2.8-3,3.8-6.5,2.6-8.1c-0.7-1-2.9-1.2-7.2-1.6c-2.4-0.2-2.7,0-3,0.2
			c-1,1,0.1,3.1-0.2,8.3c0,0.2,0,0.4,0,0.5c0.3,0.9,0.5,2.2,0.3,3.8C515.6,99.3,511.1,101.2,510.7,101.4z"/>
		
			<linearGradient id="SVGID_15_" gradientUnits="userSpaceOnUse" x1="353.2868" y1="122.189" x2="353.2868" y2="122.189" gradientTransform="matrix(0.9517 0.3069 -0.3069 0.9517 217.0941 -132.8114)">
			<stop  offset="0.9916" style="stop-color:#FFFFFF"/>
			<stop  offset="1" style="stop-color:#000000"/>
		</linearGradient>
		<path class="st21" d="M515.8,91.9"/>
	</g>
	<g>
		<ellipse transform="matrix(0.2853 -0.9584 0.9584 0.2853 157.607 591.2034)" cx="475.2" cy="189.9" rx="8.5" ry="8.5"/>
		<ellipse transform="matrix(0.2853 -0.9584 0.9584 0.2853 167.0541 616.5123)" cx="496.9" cy="196.2" rx="8.5" ry="8.5"/>
		<ellipse transform="matrix(0.2853 -0.9584 0.9584 0.2853 175.4718 598.8012)" cx="489.2" cy="181.7" rx="8.5" ry="8.5"/>
		<path d="M476.5,205.6c3.3,1,6.6,2,9.9,2.9c-0.2-0.4-2.7-4.4-0.8-8.5c0.8-1.7,2-2.7,2.8-3.2c0.1-0.8,0.3-1,0.5-1.1
			c0.4-0.2,1,0.2,1,0.2c0,0-0.2,0-0.4-0.1c2.7-3.1,3.7-6.6,2.5-8.2c-0.7-1-2.9-1.1-7.2-1.4c-2.4-0.2-2.7,0-3,0.2c-1,1,0.1,3.1,0,8.3
			c0,0.2,0,0.4,0,0.5c0.3,0.9,0.6,2.2,0.3,3.8C481.4,203.4,477,205.4,476.5,205.6z"/>
		
			<linearGradient id="SVGID_16_" gradientUnits="userSpaceOnUse" x1="447.3806" y1="147.0478" x2="447.3806" y2="147.0478" gradientTransform="matrix(0.9584 0.2853 -0.2853 0.9584 94.6465 -72.5353)">
			<stop  offset="0.9916" style="stop-color:#FFFFFF"/>
			<stop  offset="1" style="stop-color:#000000"/>
		</linearGradient>
		<path class="st22" d="M481.5,196"/>
	</g>
	<g>
		<ellipse transform="matrix(0.2883 -0.9575 0.9575 0.2883 220.0993 568.9266)" cx="492.8" cy="136.4" rx="8.5" ry="8.5"/>
		<ellipse transform="matrix(0.2883 -0.9575 0.9575 0.2883 229.407 594.2263)" cx="514.4" cy="142.8" rx="8.5" ry="8.5"/>
		<ellipse transform="matrix(0.2883 -0.9575 0.9575 0.2883 237.8903 576.5925)" cx="506.8" cy="128.3" rx="8.5" ry="8.5"/>
		<path d="M494.1,152.1c3.3,1,6.6,2,9.8,3c-0.2-0.4-2.6-4.5-0.8-8.5c0.8-1.7,2-2.7,2.8-3.2c0.1-0.8,0.3-1,0.5-1.1
			c0.4-0.2,1,0.2,1,0.2c0,0-0.2,0-0.4-0.1c2.7-3.1,3.7-6.6,2.5-8.2c-0.7-1-2.9-1.1-7.2-1.4c-2.4-0.2-2.7,0-3,0.2c-1,1,0.1,3.1,0,8.3
			c0,0.2,0,0.4,0,0.5c0.3,0.9,0.6,2.2,0.3,3.8C498.9,149.9,494.5,151.9,494.1,152.1z"/>
		
			<linearGradient id="SVGID_17_" gradientUnits="userSpaceOnUse" x1="391.8052" y1="120.471" x2="391.8052" y2="120.471" gradientTransform="matrix(0.9575 0.2883 -0.2883 0.9575 158.5934 -85.7884)">
			<stop  offset="0.9916" style="stop-color:#FFFFFF"/>
			<stop  offset="1" style="stop-color:#000000"/>
		</linearGradient>
		<path class="st23" d="M499,142.5"/>
	</g>
	<g>
		<ellipse transform="matrix(0.3069 -0.9517 0.9517 0.3069 295.4198 609.0272)" cx="565.9" cy="101.7" rx="8.5" ry="8.5"/>
		<ellipse transform="matrix(0.3069 -0.9517 0.9517 0.3069 303.8719 634.2518)" cx="587.4" cy="108.5" rx="8.5" ry="8.5"/>
		<ellipse transform="matrix(0.3069 -0.9517 0.9517 0.3069 312.7484 617.1019)" cx="580.1" cy="93.8" rx="8.5" ry="8.5"/>
		<path d="M566.8,117.4c3.3,1.1,6.5,2.1,9.8,3.2c-0.2-0.4-2.6-4.5-0.6-8.5c0.8-1.7,2.1-2.7,2.9-3.2c0.1-0.8,0.3-1,0.5-1.1
			c0.4-0.2,1,0.2,1,0.2c0,0-0.2-0.1-0.3-0.1c2.8-3,3.8-6.5,2.6-8.1c-0.7-1-2.9-1.2-7.2-1.6c-2.4-0.2-2.7,0-3,0.2
			c-1,1,0.1,3.1-0.2,8.3c0,0.2,0,0.4,0,0.5c0.3,0.9,0.5,2.2,0.3,3.8C571.8,115.3,567.3,117.2,566.8,117.4z"/>
		
			<linearGradient id="SVGID_18_" gradientUnits="userSpaceOnUse" x1="411.6538" y1="120.2115" x2="411.6538" y2="120.2115" gradientTransform="matrix(0.9517 0.3069 -0.3069 0.9517 217.0941 -132.8114)">
			<stop  offset="0.9916" style="stop-color:#FFFFFF"/>
			<stop  offset="1" style="stop-color:#000000"/>
		</linearGradient>
		<path class="st24" d="M572,107.9"/>
	</g>
	<g>
		<ellipse transform="matrix(0.2853 -0.9584 0.9584 0.2853 182.3804 656.4843)" cx="531.4" cy="206" rx="8.5" ry="8.5"/>
		<ellipse transform="matrix(0.2853 -0.9584 0.9584 0.2853 191.8275 681.7931)" cx="553.1" cy="212.3" rx="8.5" ry="8.5"/>
		<ellipse transform="matrix(0.2853 -0.9584 0.9584 0.2853 200.2452 664.082)" cx="545.4" cy="197.8" rx="8.5" ry="8.5"/>
		<path d="M532.7,221.6c3.3,1,6.6,2,9.9,2.9c-0.2-0.4-2.7-4.4-0.8-8.5c0.8-1.7,2-2.7,2.8-3.2c0.1-0.8,0.3-1,0.5-1.1
			c0.4-0.2,1,0.2,1,0.2c0,0-0.2,0-0.4-0.1c2.7-3.1,3.7-6.6,2.5-8.2c-0.7-1-2.9-1.1-7.2-1.4c-2.4-0.2-2.7,0-3,0.2c-1,1,0.1,3.1,0,8.3
			c0,0.2,0,0.4,0,0.5c0.3,0.9,0.6,2.2,0.3,3.8C537.6,219.4,533.1,221.5,532.7,221.6z"/>
		
			<linearGradient id="SVGID_19_" gradientUnits="userSpaceOnUse" x1="505.7773" y1="146.3913" x2="505.7773" y2="146.3913" gradientTransform="matrix(0.9584 0.2853 -0.2853 0.9584 94.6465 -72.5353)">
			<stop  offset="0.9916" style="stop-color:#FFFFFF"/>
			<stop  offset="1" style="stop-color:#000000"/>
		</linearGradient>
		<path class="st25" d="M537.6,212.1"/>
	</g>
	<g>
		<ellipse transform="matrix(0.2883 -0.9575 0.9575 0.2883 244.7177 634.1083)" cx="548.9" cy="152.4" rx="8.5" ry="8.5"/>
		<ellipse transform="matrix(0.2883 -0.9575 0.9575 0.2883 254.0254 659.408)" cx="570.6" cy="158.8" rx="8.5" ry="8.5"/>
		<ellipse transform="matrix(0.2883 -0.9575 0.9575 0.2883 262.5088 641.7742)" cx="563" cy="144.3" rx="8.5" ry="8.5"/>
		<path d="M550.2,168.1c3.3,1,6.6,2,9.8,3c-0.2-0.4-2.6-4.5-0.8-8.5c0.8-1.7,2-2.7,2.8-3.2c0.1-0.8,0.3-1,0.5-1.1
			c0.4-0.2,1,0.2,1,0.2c0,0-0.2,0-0.4-0.1c2.7-3.1,3.7-6.6,2.5-8.2c-0.7-1-2.9-1.1-7.2-1.4c-2.4-0.2-2.7,0-3,0.2c-1,1,0.1,3.1,0,8.3
			c0,0.2,0,0.4,0,0.5c0.3,0.9,0.6,2.2,0.3,3.8C555.1,165.9,550.7,167.9,550.2,168.1z"/>
		
			<linearGradient id="SVGID_20_" gradientUnits="userSpaceOnUse" x1="450.1993" y1="119.6306" x2="450.1993" y2="119.6306" gradientTransform="matrix(0.9575 0.2883 -0.2883 0.9575 158.5934 -85.7884)">
			<stop  offset="0.9916" style="stop-color:#FFFFFF"/>
			<stop  offset="1" style="stop-color:#000000"/>
		</linearGradient>
		<path class="st26" d="M555.2,158.6"/>
	</g>
	
		<linearGradient id="SVGID_21_" gradientUnits="userSpaceOnUse" x1="374.5184" y1="23.5074" x2="386.6597" y2="23.5074" gradientTransform="matrix(0.9568 0.2909 -0.2909 0.9568 137.9564 -101.6975)">
		<stop  offset="0.9916" style="stop-color:#FFFFFF"/>
		<stop  offset="1" style="stop-color:#000000"/>
	</linearGradient>
	<path class="st27" d="M499.1,23c-6.6,2-10.7,6.6-10.6,11c0.1,2.2,1.3,5.5,4.1,6.4c2.9,0.9,6.9-0.9,7.4-4.2c0.5-2.7-1.6-5.3-4.2-6.2
		c-2.7-0.8-5.7,0.4-7.2,3"/>
	
		<linearGradient id="SVGID_22_" gradientUnits="userSpaceOnUse" x1="512.7395" y1="224.7676" x2="524.8808" y2="224.7676" gradientTransform="matrix(0.9568 0.2909 -0.2909 0.9568 137.9564 -101.6975)">
		<stop  offset="0.9916" style="stop-color:#FFFFFF"/>
		<stop  offset="1" style="stop-color:#000000"/>
	</linearGradient>
	<path class="st28" d="M572.8,255.8c-6.6,2-10.7,6.6-10.6,11c0.1,2.2,1.3,5.5,4.1,6.4c2.9,0.9,6.9-0.9,7.4-4.2
		c0.5-2.7-1.6-5.3-4.2-6.2c-2.7-0.8-5.7,0.4-7.2,3"/>
</g>
<g id="Layer_2">
	<linearGradient id="SVGID_23_" gradientUnits="userSpaceOnUse" x1="309.1711" y1="138.842" x2="494.8459" y2="138.842">
		<stop  offset="0.9333" style="stop-color:#FFFFFF"/>
		<stop  offset="1" style="stop-color:#000000"/>
	</linearGradient>
	<path class="st29" d="M482.7,262.8H321.4c-6.7,0-12.2-5.5-12.2-12.2V27.1c0-6.7,5.5-12.2,12.2-12.2h161.3c6.7,0,12.2,5.5,12.2,12.2
		v223.5C494.8,257.3,489.4,262.8,482.7,262.8z"/>
	<linearGradient id="SVGID_24_" gradientUnits="userSpaceOnUse" x1="305.4631" y1="137.6774" x2="491.1379" y2="137.6774">
		<stop  offset="0.9916" style="stop-color:#FFFFFF"/>
		<stop  offset="1" style="stop-color:#000000"/>
	</linearGradient>
	<path class="st30" d="M479,261.6H317.6c-6.7,0-12.2-5.5-12.2-12.2V25.9c0-6.7,5.5-12.2,12.2-12.2H479c6.7,0,12.2,5.5,12.2,12.2
		v223.5C491.1,256.1,485.7,261.6,479,261.6z"/>
	<path class="st3" d="M317.7,24c3.4-0.1,6.7-0.1,10.1-0.2c-1.5,1.8-2.9,3.6-4.4,5.5c3,0,5.4,2.5,5.3,5.3c-0.1,2.7-2.4,4.9-5.1,5
		c-2.7,0.1-5.1-2.1-5.3-4.9"/>
	<path class="st3" d="M469.3,233.4c3.4-0.1,6.7-0.1,10.1-0.2c-1.5,1.8-2.9,3.6-4.4,5.5c3,0,5.4,2.5,5.3,5.3c-0.1,2.7-2.4,4.9-5.1,5
		c-2.7,0.1-5.1-2.1-5.3-4.9"/>
	<path class="st2" d="M395.9,130.8c-0.8-6.1-5.2-10.8-10.4-11.4c-7.4-1-13.2,6.4-13.6,12.5c-0.2,4.1,2,7.2,2.6,8.1
		c3,4.3,6.8,4.8,11.1,7.6c3.2,2.1,7.2,5.8,10.2,13.2C395.8,150.8,395.8,140.8,395.9,130.8z"/>
	<path class="st2" d="M418.2,140c-3.1,4.3-6.8,4.7-11,7.6c-3.1,2.1-6.9,5.9-9.7,13.3c-0.2-4.9-0.4-9.9-0.5-15.1
		c-0.1-5.1-0.1-10.1-0.1-14.9c0.8-6.1,5.2-10.8,10.4-11.4c7.4-1,13.2,6.4,13.6,12.5C421.1,135.9,418.9,139.1,418.2,140z"/>
	<path class="st2" d="M395.8,75.1c-0.8-6.1-5.2-10.8-10.4-11.4c-7.4-1-13.2,6.4-13.6,12.5c-0.2,4.1,2,7.2,2.6,8.1
		c3,4.3,6.8,4.8,11.1,7.6c3.2,2.1,7.2,5.8,10.2,13.2C395.7,95.1,395.7,85.1,395.8,75.1z"/>
	<path class="st2" d="M418.1,84.3c-3.1,4.3-6.8,4.7-11,7.6c-3.1,2.1-6.9,5.9-9.7,13.3c-0.2-4.9-0.4-9.9-0.5-15.1
		c-0.1-5.1-0.1-10.1-0.1-14.9c0.8-6.1,5.2-10.8,10.4-11.4c7.4-1,13.2,6.4,13.6,12.5C421,80.2,418.8,83.4,418.1,84.3z"/>
	<g>
		<path class="st2" d="M396.4,184.8c-0.8-6.1-5.2-10.8-10.4-11.4c-7.4-1-13.2,6.4-13.6,12.5c-0.2,4.1,2,7.2,2.6,8.1
			c3,4.3,6.8,4.8,11.1,7.6c3.2,2.1,7.2,5.8,10.2,13.2C396.3,204.7,396.4,194.7,396.4,184.8z"/>
		<path class="st2" d="M418.8,194c-3.1,4.3-6.8,4.7-11,7.6c-3.1,2.1-6.9,5.9-9.7,13.3c-0.2-4.9-0.4-9.9-0.5-15.1
			c-0.1-5.1-0.1-10.1-0.1-14.9c0.8-6.1,5.2-10.8,10.4-11.4c7.4-1,13.2,6.4,13.6,12.5C421.6,189.9,419.4,193,418.8,194z"/>
	</g>
</g>
<g id="Layer_10">
</g>
</svg>
