<?xml version="1.0" encoding="utf-8"?>
<!-- Generator: Adobe Illustrator 21.0.2, SVG Export Plug-In . SVG Version: 6.00 Build 0)  -->
<svg version="1.1" id="Layer_1" xmlns="http://www.w3.org/2000/svg" xmlns:xlink="http://www.w3.org/1999/xlink" x="0px" y="0px"
	 viewBox="0 0 841.9 595.3" style="enable-background:new 0 0 841.9 595.3;" xml:space="preserve">
<style type="text/css">
	.st0{fill:#FBD3D4;stroke:#000000;stroke-width:3;stroke-miterlimit:10;}
	.st1{fill:#F3A0C5;stroke:#000000;stroke-width:3;stroke-miterlimit:10;}
	.st2{fill:#F79981;stroke:#000000;stroke-width:3;stroke-miterlimit:10;}
	.st3{fill:#FDBE73;stroke:#000000;stroke-width:3;stroke-miterlimit:10;}
	.st4{fill:#FAF17F;stroke:#000000;stroke-width:3;stroke-miterlimit:10;}
	.st5{fill:#D5E594;stroke:#000000;stroke-width:3;stroke-miterlimit:10;}
	.st6{fill:#9DD3AA;stroke:#000000;stroke-width:3;stroke-miterlimit:10;}
	.st7{fill:#CE95C2;stroke:#000000;stroke-width:3;stroke-miterlimit:10;}
	.st8{fill:#FFFFFF;stroke:#000000;stroke-miterlimit:10;}
	.st9{fill:#B7A8D2;stroke:#000000;stroke-width:3;stroke-miterlimit:10;}
	.st10{fill:#A4B6DD;stroke:#000000;stroke-width:3;stroke-miterlimit:10;}
	.st11{fill:#FFFFFF;stroke:#000000;stroke-width:3;stroke-miterlimit:10;}
	.st12{fill:#ABE0F4;stroke:#000000;stroke-width:3;stroke-miterlimit:10;}
	.st13{fill:#A1D8CD;stroke:#000000;stroke-width:3;stroke-miterlimit:10;}
	.st14{fill:#C8E8E3;stroke:#000000;stroke-width:3;stroke-miterlimit:10;}
	.st15{fill:#9ED7C8;stroke:#000000;stroke-width:3;stroke-miterlimit:10;}
	.st16{fill:#7FD1E2;stroke:#000000;stroke-width:3;stroke-miterlimit:10;}
</style>
<path class="st0" d="M1,594.8V0.1h840.4C561.3,198.3,281.1,396.5,1,594.8z"/>
<polygon class="st1" points="86.5,0.9 29.8,0.9 1.5,50 29.8,99.1 86.5,99.1 114.9,50 "/>
<polygon class="st2" points="85.6,494.1 28.9,494.1 0.5,543.2 28.9,592.3 85.6,592.3 113.9,543.2 "/>
<polygon class="st3" points="86.7,395.5 30.1,395.5 1.7,444.6 30.1,493.7 86.7,493.7 115.1,444.6 "/>
<polygon class="st4" points="86.7,296.9 30.1,296.9 1.7,346 30.1,395.1 86.7,395.1 115.1,346 "/>
<polygon class="st5" points="86.7,198.3 30.1,198.3 1.7,247.4 30.1,296.5 86.7,296.5 115.1,247.4 "/>
<polygon class="st6" points="86.7,99.7 30.1,99.7 1.7,148.8 30.1,197.9 86.7,197.9 115.1,148.8 "/>
<polygon class="st7" points="200.7,1.3 144,1.3 115.6,50.4 144,99.5 200.7,99.5 229,50.4 "/>
<polygon class="st8" points="199.7,494.4 143,494.4 114.7,543.5 143,592.6 199.7,592.6 228.1,543.5 "/>
<polygon class="st4" points="200.9,395.8 144.2,395.8 115.9,444.9 144.2,494 200.9,494 229.2,444.9 "/>
<polygon class="st5" points="200.9,297.2 144.2,297.2 115.9,346.3 144.2,395.4 200.9,395.4 229.2,346.3 "/>
<polygon class="st6" points="200.9,198.6 144.2,198.6 115.9,247.7 144.2,296.8 200.9,296.8 229.2,247.7 "/>
<polygon class="st1" points="200.9,100 144.2,100 115.9,149.1 144.2,198.2 200.9,198.2 229.2,149.1 "/>
<polygon class="st9" points="315.2,1.4 258.5,1.4 230.2,50.5 258.5,99.6 315.2,99.6 343.6,50.5 "/>
<polygon class="st8" points="314.3,494.5 257.6,494.5 229.2,543.6 257.6,592.7 314.3,592.7 342.6,543.6 "/>
<polygon class="st5" points="315.4,395.9 258.8,395.9 230.4,445 258.8,494.1 315.4,494.1 343.8,445 "/>
<polygon class="st6" points="315.4,297.4 258.8,297.4 230.4,346.5 258.8,395.6 315.4,395.6 343.8,346.5 "/>
<polygon class="st1" points="315.4,198.8 258.8,198.8 230.4,247.9 258.8,297 315.4,297 343.8,247.9 "/>
<polygon class="st7" points="315.4,100.2 258.8,100.2 230.4,149.3 258.8,198.4 315.4,198.4 343.8,149.3 "/>
<polygon class="st10" points="429.4,1.7 372.7,1.7 344.3,50.8 372.7,99.9 429.4,99.9 457.7,50.8 "/>
<polygon class="st8" points="428.4,494.9 371.7,494.9 343.4,544 371.7,593.1 428.4,593.1 456.8,544 "/>
<polygon class="st11" points="429.6,396.3 372.9,396.3 344.5,445.4 372.9,494.5 429.6,494.5 457.9,445.4 "/>
<polygon class="st1" points="429.6,297.7 372.9,297.7 344.5,346.8 372.9,395.9 429.6,395.9 457.9,346.8 "/>
<polygon class="st7" points="429.6,199.1 372.9,199.1 344.5,248.2 372.9,297.3 429.6,297.3 457.9,248.2 "/>
<polygon class="st9" points="429.6,100.5 372.9,100.5 344.5,149.6 372.9,198.7 429.6,198.7 457.9,149.6 "/>
<polygon class="st12" points="542.8,1.6 486.2,1.6 457.8,50.7 486.2,99.8 542.8,99.8 571.2,50.7 "/>
<polygon class="st8" points="541.9,494.7 485.2,494.7 456.8,543.8 485.2,592.9 541.9,592.9 570.2,543.8 "/>
<polygon class="st11" points="543.1,396.1 486.4,396.1 458,445.2 486.4,494.3 543.1,494.3 571.4,445.2 "/>
<polygon class="st11" points="543.1,297.5 486.4,297.5 458,346.6 486.4,395.7 543.1,395.7 571.4,346.6 "/>
<polygon class="st9" points="543.1,198.9 486.4,198.9 458,248 486.4,297.1 543.1,297.1 571.4,248 "/>
<polygon class="st10" points="543.1,100.3 486.4,100.3 458,149.4 486.4,198.5 543.1,198.5 571.4,149.4 "/>
<polygon class="st13" points="657.4,1.7 600.7,1.7 572.4,50.8 600.7,99.9 657.4,99.9 685.7,50.8 "/>
<polygon class="st8" points="656.4,494.8 599.7,494.8 571.4,543.9 599.7,593 656.4,593 684.8,543.9 "/>
<polygon class="st11" points="657.6,396.2 600.9,396.2 572.6,445.3 600.9,494.4 657.6,494.4 686,445.3 "/>
<polygon class="st11" points="657.6,297.7 600.9,297.7 572.6,346.8 600.9,395.8 657.6,395.8 686,346.8 "/>
<polygon class="st11" points="657.6,199.1 600.9,199.1 572.6,248.2 600.9,297.3 657.6,297.3 686,248.2 "/>
<polygon class="st12" points="657.6,100.5 600.9,100.5 572.6,149.6 600.9,198.7 657.6,198.7 686,149.6 "/>
<polygon class="st14" points="771.5,1 714.8,1 686.5,50.1 714.8,99.2 771.5,99.2 799.9,50.1 "/>
<polygon class="st8" points="770.6,495.2 713.9,495.2 685.5,544.3 713.9,593.4 770.6,593.4 798.9,544.3 "/>
<polygon class="st8" points="771.8,396.6 715.1,396.6 686.7,445.7 715.1,494.8 771.8,494.8 800.1,445.7 "/>
<polygon class="st8" points="771.8,298 715.1,298 686.7,347.1 715.1,396.2 771.8,396.2 800.1,347.1 "/>
<polygon class="st8" points="771.8,199.4 715.1,199.4 686.7,248.5 715.1,297.6 771.8,297.6 800.1,248.5 "/>
<polygon class="st11" points="771.8,100.8 715.1,100.8 686.7,149.9 715.1,199 771.8,199 800.1,149.9 "/>
<path class="st15" d="M841,1.1c-3.8,0.1-7.6,0.1-11.4,0.2l-28.3,49.1l28.3,49.1C833.3,66.7,837.1,33.9,841,1.1z"/>
<path class="st16" d="M844.6,1.6c-1.1,197.7-2.1,395.5-3.2,593.2c-279,0.5-558,0.9-837,1.4C284.4,398,564.5,199.8,844.6,1.6z"/>
</svg>
