<?xml version="1.0" encoding="utf-8"?>
<!-- Generator: Adobe Illustrator 21.0.2, SVG Export Plug-In . SVG Version: 6.00 Build 0)  -->
<svg version="1.1" id="Layer_1" xmlns="http://www.w3.org/2000/svg" xmlns:xlink="http://www.w3.org/1999/xlink" x="0px" y="0px"
	 viewBox="0 0 841.9 595.3" style="enable-background:new 0 0 841.9 595.3;" xml:space="preserve">
<style type="text/css">
	.st0{fill:url(#SVGID_1_);stroke:#000000;stroke-width:3;stroke-miterlimit:10;}
	.st1{fill:#FFFFFF;stroke:#000000;stroke-width:2;stroke-miterlimit:10;}
</style>
<linearGradient id="SVGID_1_" gradientUnits="userSpaceOnUse" x1="368.7043" y1="298.2045" x2="473.5058" y2="298.2045">
	<stop  offset="0" style="stop-color:#FF00A3"/>
	<stop  offset="0.2422" style="stop-color:#9100AA"/>
	<stop  offset="0.4842" style="stop-color:#490094"/>
	<stop  offset="0.7459" style="stop-color:#1C006A"/>
	<stop  offset="1" style="stop-color:#000000"/>
</linearGradient>
<ellipse class="st0" cx="421.1" cy="298.2" rx="52.4" ry="52.4"/>
<path class="st1" d="M438.3,312.1c-2,1.5-6.8,4.4-13.4,4.8c-2.7,0.2-9.8,0.5-15.4-4.4c-6.6-5.8-7.8-15.9-4.6-22.9
	c0.7-1.5,2.5-5.5,7-7.9c3.9-2.1,7.7-1.9,9-1.8c0.4,0,2.6,0.2,4.9,1.1c7.9,2.8,10.7,10.2,11,11.3c-2.5,1.4-4.9,2.8-7.4,4.2
	c6.1,2.5,12.3,4.9,18.4,7.4c1.5-6.3,3-12.6,4.5-18.9c-2.4,1.2-4.8,2.3-7.2,3.5c-0.6-1.8-3.9-10.5-13.3-15.1
	c-0.7-0.3-11.4-5.4-22.8-0.1c-11.1,5.2-16.9,17.6-15.6,28.4c1.3,11.1,9.5,17.5,10.6,18.4c10.1,7.6,25.2,7.6,38-0.4
	c-0.5-1.2-1-2.5-1.7-3.9C439.6,314.5,438.9,313.3,438.3,312.1z"/>
</svg>
