<?xml version="1.0" encoding="utf-8"?>
<!-- Generator: Adobe Illustrator 21.0.2, SVG Export Plug-In . SVG Version: 6.00 Build 0)  -->
<svg version="1.1" id="Layer_1" xmlns="http://www.w3.org/2000/svg" xmlns:xlink="http://www.w3.org/1999/xlink" x="0px" y="0px"
	 viewBox="0 0 841.9 595.3" style="enable-background:new 0 0 841.9 595.3;" xml:space="preserve">
<style type="text/css">
	.st0{fill:#DD4526;stroke:url(#SVGID_1_);stroke-width:3;stroke-miterlimit:10;}
	.st1{fill:#EE3724;}
	.st2{fill:#FFFFFF;stroke:#FFFFFF;stroke-width:2;stroke-miterlimit:10;}
</style>
<linearGradient id="SVGID_1_" gradientUnits="userSpaceOnUse" x1="369.9007" y1="296.555" x2="477.7826" y2="296.555" gradientTransform="matrix(0.9999 -1.500426e-02 1.500426e-02 0.9999 -7.096 8.0532)">
	<stop  offset="0" style="stop-color:#F26B43"/>
	<stop  offset="1" style="stop-color:#EF4833"/>
</linearGradient>
<ellipse transform="matrix(0.9999 -1.500426e-02 1.500426e-02 0.9999 -4.4271 6.3526)" class="st0" cx="421.1" cy="298.2" rx="52.4" ry="52.4"/>
<path class="st1" d="M421.7,349.2c-27.9,0.4-51.3-22.2-51.7-50.2c-0.4-27.9,22.2-51.3,50.2-51.7
	C420.7,281.3,421.2,315.2,421.7,349.2z"/>
<path class="st2" d="M438.3,311.9c-9.1,7.3-21.4,7.1-28.7,0.4c-6.1-5.6-8.3-15.4-4.8-22.7c2.7-5.6,7.8-8,8.3-8.3
	c5.6-2.5,10.7-1,12.6-0.3c7.9,2.8,10.7,10.2,11,11.3c-2.5,1.4-4.9,2.8-7.4,4.2c6.1,2.5,12.3,4.9,18.4,7.4c1.5-6.3,3-12.6,4.5-18.9
	c-2.4,1.2-4.8,2.3-7.2,3.5c-0.8-2.1-4.2-9.9-12.9-14.4c-1.1-0.6-11.9-5.9-23.2-0.8c-11,5-16.9,17.2-15.6,28.4
	c1.3,11.1,9.5,17.5,10.6,18.4c10.1,7.6,25.2,7.6,38-0.4C440.9,317.1,439.6,314.5,438.3,311.9z"/>
</svg>
