<?xml version="1.0" encoding="utf-8"?>
<!-- Generator: Adobe Illustrator 21.0.2, SVG Export Plug-In . SVG Version: 6.00 Build 0)  -->
<svg version="1.1" xmlns="http://www.w3.org/2000/svg" xmlns:xlink="http://www.w3.org/1999/xlink" x="0px" y="0px"
	 viewBox="0 0 841.9 595.3" style="enable-background:new 0 0 841.9 595.3;" xml:space="preserve">
<style type="text/css">
	.st0{fill:url(#SVGID_1_);stroke:#000000;stroke-miterlimit:10;}
	.st1{opacity:0.56;fill:#FCF9CE;stroke:#000000;stroke-width:2;stroke-miterlimit:10;}
	.st2{opacity:0.57;fill:#FCF9CE;stroke:#000000;stroke-width:2;stroke-miterlimit:10;}
	.st3{fill:#FCF9CE;}
	.st4{opacity:0.56;fill:#FCF9CE;}
	.st5{fill:#FCF9CE;stroke:#000000;stroke-width:2;stroke-miterlimit:10;}
	.st6{opacity:0.38;fill:#FCF9CE;stroke:#000000;stroke-width:2;stroke-miterlimit:10;}
	.st7{opacity:0.18;fill:#FCF9CE;stroke:#000000;stroke-width:2;stroke-miterlimit:10;}
	.st8{fill:url(#SVGID_2_);}
	.st9{fill:url(#SVGID_3_);}
	.st10{fill:url(#SVGID_4_);}
	.st11{fill:url(#SVGID_5_);}
	.st12{fill:url(#SVGID_6_);}
	.st13{fill:url(#SVGID_7_);stroke:#000000;stroke-width:3;stroke-miterlimit:10;}
	.st14{fill:url(#SVGID_8_);stroke:#000000;stroke-width:3;stroke-miterlimit:10;}
	.st15{fill:url(#SVGID_9_);stroke:#000000;stroke-width:3;stroke-miterlimit:10;}
	.st16{fill:none;stroke:url(#SVGID_10_);stroke-width:5;stroke-miterlimit:10;}
	.st17{fill:#FCF9CE;stroke:#FCF9CE;stroke-miterlimit:10;}
	.st18{opacity:0.8;fill:#FCF9CE;stroke:#FCF9CE;stroke-miterlimit:10;}
	.st19{opacity:0.6;fill:#FCF9CE;stroke:#FCF9CE;stroke-miterlimit:10;}
	.st20{opacity:0.4;fill:#FCF9CE;stroke:#FCF9CE;stroke-miterlimit:10;}
	.st21{opacity:0.2;fill:#FCF9CE;stroke:#FCF9CE;stroke-miterlimit:10;}
	.st22{opacity:0.3;fill:#FCF9CE;}
	.st23{opacity:0.47;fill:#FCF9CE;}
	.st24{opacity:0.24;fill:#FCF9CE;}
	.st25{fill:url(#SVGID_11_);stroke:#000000;stroke-width:3;stroke-miterlimit:10;}
</style>
<g id="Layer_1">
	
		<linearGradient id="SVGID_1_" gradientUnits="userSpaceOnUse" x1="122.7917" y1="297.1458" x2="717.5833" y2="297.1458" gradientTransform="matrix(1.110223e-16 -1 1 1.110223e-16 123.0417 717.3333)">
		<stop  offset="0" style="stop-color:#FBF071"/>
		<stop  offset="0.1809" style="stop-color:#D3C928"/>
		<stop  offset="0.49" style="stop-color:#F15B43"/>
		<stop  offset="0.7672" style="stop-color:#530838"/>
		<stop  offset="0.9982" style="stop-color:#381215"/>
	</linearGradient>
	<rect x="-1.2" y="-0.2" class="st0" width="842.7" height="594.8"/>
	<circle class="st1" cx="300.5" cy="33.3" r="4.3"/>
	<circle class="st2" cx="290.5" cy="148.4" r="4.3"/>
	<circle class="st2" cx="468.2" cy="314.6" r="4.3"/>
	<circle class="st3" cx="574.8" cy="77.3" r="4.3"/>
	<circle class="st2" cx="589" cy="280.5" r="4.3"/>
	<circle class="st2" cx="610.3" cy="188.1" r="4.3"/>
	<circle class="st2" cx="246.1" cy="195.2" r="4.3"/>
	<circle class="st4" cx="245.1" cy="80.4" r="4.3"/>
	<circle class="st5" cx="191.1" cy="146.9" r="4.3"/>
	<circle class="st2" cx="469.5" cy="205.9" r="4.3"/>
	<circle class="st1" cx="366.1" cy="71.8" r="4.3"/>
	<circle class="st2" cx="374.4" cy="203.8" r="4.3"/>
	<circle class="st1" cx="498" cy="46" r="4.3"/>
	<circle class="st2" cx="284.8" cy="253.5" r="4.3"/>
	<circle class="st3" cx="430.1" cy="80" r="4.3"/>
	<circle class="st3" cx="385" cy="274.4" r="4.3"/>
	<circle class="st2" cx="530.7" cy="144.1" r="4.3"/>
	<circle class="st3" cx="816.4" cy="20.5" r="4.3"/>
	<circle class="st1" cx="820.6" cy="134.2" r="4.3"/>
	<circle class="st1" cx="769.5" cy="75.9" r="4.3"/>
	<circle class="st3" cx="748.1" cy="233.6" r="4.3"/>
	<circle class="st2" cx="816.4" cy="225.1" r="4.3"/>
	<circle class="st2" cx="736.8" cy="335.9" r="4.3"/>
	<circle class="st3" cx="429.8" cy="372.9" r="4.3"/>
	<circle class="st6" cx="319" cy="377.2" r="4.3"/>
	<circle class="st2" cx="726.8" cy="149.8" r="4.3"/>
	<circle class="st2" cx="627.3" cy="354.4" r="4.3"/>
	<circle class="st2" cx="172.6" cy="313.2" r="4.3"/>
	<circle class="st6" cx="547.8" cy="404.2" r="4.3"/>
	<circle class="st6" cx="392.9" cy="446.8" r="4.3"/>
	<circle class="st6" cx="218.1" cy="409.8" r="4.3"/>
	<circle class="st3" cx="685.6" cy="64.5" r="4.3"/>
	<circle class="st2" cx="675.7" cy="249.3" r="4.3"/>
	<circle class="st1" cx="397.1" cy="137" r="4.3"/>
	<circle class="st3" cx="583.3" cy="461" r="4.3"/>
	<circle class="st7" cx="242.2" cy="489.4" r="4.3"/>
	<circle class="st7" cx="156.9" cy="469.5" r="4.3"/>
	<circle class="st3" cx="44.7" cy="426.9" r="4.3"/>
	<circle class="st1" cx="228" cy="24.7" r="4.3"/>
	<circle class="st1" cx="33.3" cy="129.9" r="4.3"/>
	<circle class="st2" cx="40.4" cy="229.4" r="4.3"/>
	<circle class="st1" cx="27.6" cy="20.5" r="4.3"/>
	<circle class="st2" cx="800.7" cy="324.6" r="4.3"/>
	<circle class="st7" cx="746.7" cy="468.1" r="4.3"/>
	<circle class="st2" cx="47.5" cy="361.5" r="4.3"/>
	<circle class="st6" cx="124.2" cy="405.6" r="4.3"/>
	<circle class="st3" cx="88.7" cy="75.9" r="4.3"/>
	<circle class="st3" cx="296.2" cy="432.6" r="4.3"/>
	<circle class="st2" cx="515.1" cy="243.6" r="4.3"/>
	<circle class="st3" cx="250.7" cy="327.4" r="4.3"/>
	<circle class="st2" cx="127.1" cy="242.1" r="4.3"/>
	<circle class="st2" cx="88.7" cy="161.1" r="4.3"/>
	<circle class="st2" cx="80.2" cy="297.6" r="4.3"/>
	<circle class="st1" cx="158.4" cy="70.2" r="4.3"/>
	<circle class="st3" cx="179.7" cy="223.7" r="4.3"/>
	<circle class="st3" cx="763.8" cy="408.4" r="4.3"/>
	<circle class="st6" cx="662.9" cy="445.4" r="4.3"/>
	<circle class="st7" cx="500.9" cy="482.3" r="4.3"/>
	<circle class="st1" cx="731.1" cy="20.5" r="4.3"/>
	<circle class="st1" cx="627.3" cy="24.7" r="4.3"/>
	<circle class="st1" cx="650.1" cy="122.8" r="4.3"/>
	<circle class="st2" cx="375.8" cy="350.2" r="4.3"/>
	<circle class="st3" cx="138.5" cy="354.4" r="4.3"/>
	<circle class="st7" cx="213.8" cy="560.5" r="4.3"/>
	<circle class="st7" cx="31.9" cy="564.7" r="4.3"/>
	<circle class="st7" cx="627.3" cy="564.8" r="4.3"/>
	<circle class="st7" cx="496.6" cy="579" r="4.3"/>
	<circle class="st3" cx="384.3" cy="534.9" r="4.3"/>
	<circle class="st7" cx="270.6" cy="544.8" r="4.3"/>
	<circle class="st3" cx="155.5" cy="533.5" r="4.3"/>
	<circle class="st7" cx="799.3" cy="537.8" r="4.3"/>
	<circle class="st3" cx="684.2" cy="532.1" r="4.3"/>
	<circle class="st7" cx="562" cy="526.4" r="4.3"/>
	<circle class="st7" cx="421.3" cy="489.4" r="4.3"/>
	<circle class="st7" cx="334.6" cy="493.7" r="4.3"/>
	<circle class="st7" cx="80.2" cy="486.6" r="4.3"/>
</g>
<g id="Layer_3">
	<linearGradient id="SVGID_2_" gradientUnits="userSpaceOnUse" x1="-1.1875" y1="424.6238" x2="556" y2="424.6238">
		<stop  offset="0" style="stop-color:#74287C;stop-opacity:0.7"/>
		<stop  offset="0.5298" style="stop-color:#C55EA4;stop-opacity:0.7"/>
		<stop  offset="1" style="stop-color:#F5D5E6;stop-opacity:0.7"/>
	</linearGradient>
	<path class="st8" d="M-1.2,295.9c12.4-9.9,54.2-40.9,114.1-40.8c67.3,0.2,130.5,39.6,161.7,100.4c44-19.1,94.7-8.2,125.1,26.2
		c26.5,30,33.5,73.4,18.2,111.7c13.1,0.2,48.8,2.5,84,27.7c36.4,26,50,60.6,54.2,72.8c-185.4,0-370.7,0.1-556.1,0.1
		C-0.4,494.7-0.8,395.3-1.2,295.9z"/>
	<linearGradient id="SVGID_3_" gradientUnits="userSpaceOnUse" x1="0" y1="462.0406" x2="472" y2="462.0406">
		<stop  offset="0" style="stop-color:#C55EA4;stop-opacity:0.7"/>
		<stop  offset="0.4914" style="stop-color:#EBD680;stop-opacity:0.7"/>
		<stop  offset="1" style="stop-color:#F5D5E6;stop-opacity:0.7"/>
	</linearGradient>
	<path class="st9" d="M0,372c37.5-39.4,93.4-53.2,141-35c56.1,21.4,73.9,77,76,84c39.5-33.2,95.3-31.1,127,0
		c24.4,24,31.9,62.7,19,98c12.4,1.2,39.7,5.4,67,25c24,17.2,36.4,38,42,49c-157.3,0.7-314.7,1.3-472,2C0,520.7,0,446.3,0,372z"/>
	<linearGradient id="SVGID_4_" gradientUnits="userSpaceOnUse" x1="349.1677" y1="397.0131" x2="841.4168" y2="397.0131">
		<stop  offset="0" style="stop-color:#74287C;stop-opacity:0.7"/>
		<stop  offset="0.5298" style="stop-color:#C55EA4;stop-opacity:0.7"/>
		<stop  offset="1" style="stop-color:#F5D5E6;stop-opacity:0.7"/>
	</linearGradient>
	<path class="st10" d="M840.6,234.4c-6.3-4.5-82.1-56.7-172.4-23.4c-93,34.3-115.5,127.8-116.9,134.3
		c-42.8-27.1-95.9-29.8-137.7-6.1c-3,1.7-68.6,40.3-64.1,108.3c3.5,52.5,46.1,81.6,51.1,84.9c38.8,25.5,91.1,25.1,134.3-0.9
		c26.6,26.2,52.9,39.6,69.6,46.5c83.1,34.3,159.9,3.5,175.5-3.2c28.3-12.1,48.7-27.7,61.5-39C841.1,435.4,840.8,334.9,840.6,234.4z"
		/>
	<linearGradient id="SVGID_5_" gradientUnits="userSpaceOnUse" x1="311.5933" y1="388.55" x2="841.1366" y2="388.55">
		<stop  offset="0" style="stop-color:#F7F297;stop-opacity:0.7"/>
		<stop  offset="0.5298" style="stop-color:#C55EA4;stop-opacity:0.7"/>
		<stop  offset="1" style="stop-color:#F5D5E6;stop-opacity:0.7"/>
	</linearGradient>
	<path class="st11" d="M841.1,316.1c-4.6-10.4-41.7-89.4-130-111.6c-73.1-18.4-152.3,9.5-202.2,71.1c-3.6-3.6-48.5-46.8-108.2-34.1
		c-43.7,9.3-88.3,47.1-89.2,98.4c-0.7,38.5,23.4,81.4,64.9,93.8c36.1,10.8,67.5-6.6,74-10.5c1.1,59.2,33.4,112.9,84,138.7
		c60.9,31.1,138.4,16.7,188.2-36.7c6.1,7,27,29.3,62.2,35.2c26,4.4,46.9-2.3,56.2-6C841.1,475.1,841.1,395.6,841.1,316.1z"/>
	<linearGradient id="SVGID_6_" gradientUnits="userSpaceOnUse" x1="225.9029" y1="671.1977" x2="225.9029" y2="671.1977">
		<stop  offset="0" style="stop-color:#F7F297;stop-opacity:0.7"/>
		<stop  offset="0.5298" style="stop-color:#C55EA4;stop-opacity:0.7"/>
		<stop  offset="1" style="stop-color:#F5D5E6;stop-opacity:0.7"/>
	</linearGradient>
	<path class="st12" d="M225.9,671.2"/>
</g>
<g id="Layer_2">
	
		<linearGradient id="SVGID_7_" gradientUnits="userSpaceOnUse" x1="667.426" y1="410.8497" x2="894.1977" y2="410.8497" gradientTransform="matrix(0.7894 0.6138 -0.6138 0.7894 358.219 -340.9007)">
		<stop  offset="0" style="stop-color:#C5E0A3"/>
		<stop  offset="0.1809" style="stop-color:#5CBA47"/>
		<stop  offset="0.49" style="stop-color:#44BDED"/>
		<stop  offset="0.7317" style="stop-color:#2D2D87"/>
		<stop  offset="0.9982" style="stop-color:#292166"/>
	</linearGradient>
	<circle class="st13" cx="722.4" cy="462.7" r="113.4"/>
	
		<linearGradient id="SVGID_8_" gradientUnits="userSpaceOnUse" x1="109.9696" y1="582.9983" x2="280.0483" y2="582.9983" gradientTransform="matrix(0.7071 0.7071 -0.7071 0.7071 450.8266 -86.6266)">
		<stop  offset="0" style="stop-color:#E8EA82"/>
		<stop  offset="0.3165" style="stop-color:#DFE21D;stop-opacity:0.7"/>
		<stop  offset="0.6646" style="stop-color:#EE2530;stop-opacity:0.7"/>
		<stop  offset="1" style="stop-color:#682710"/>
	</linearGradient>
	<circle class="st14" cx="176.5" cy="463.5" r="85"/>
	
		<linearGradient id="SVGID_9_" gradientUnits="userSpaceOnUse" x1="263.2798" y1="236.3248" x2="504.2247" y2="236.3248" gradientTransform="matrix(0.7852 0.3342 -0.3341 0.785 132.3897 -100.9844)">
		<stop  offset="0" style="stop-color:#E83B95"/>
		<stop  offset="0.3165" style="stop-color:#A15BA4;stop-opacity:0.7"/>
		<stop  offset="0.6221" style="stop-color:#24B99E;stop-opacity:0.7"/>
		<stop  offset="0.9982" style="stop-color:#0E552B"/>
	</linearGradient>
	<path class="st15" d="M449.4,253c-22.2,52.2-82.6,76.5-134.8,54.3c-52.2-22.2-76.6-82.6-54.3-134.8S342.8,96,395,118.2
		S471.6,200.8,449.4,253z"/>
	<linearGradient id="SVGID_10_" gradientUnits="userSpaceOnUse" x1="221.2137" y1="222.1347" x2="484.434" y2="222.1347">
		<stop  offset="0" style="stop-color:#E83B95;stop-opacity:0.7"/>
		<stop  offset="0.5298" style="stop-color:#A15BA4;stop-opacity:0.7"/>
		<stop  offset="1" style="stop-color:#24B99E;stop-opacity:0.7"/>
	</linearGradient>
	<path class="st16" d="M250.6,207.6c-21.6-0.5-26.7,1-26.9,2.6c-0.8,5.8,63.3,27.3,133.1,26.7c65.5-0.6,125.9-20.7,125.1-25.9
		c-0.3-2.1-10.8-2.4-22.9-2.1"/>
	<g>
		<circle class="st17" cx="161.7" cy="145.7" r="14.2"/>
		<circle class="st18" cx="162" cy="146" r="42.5"/>
		<circle class="st19" cx="161" cy="146.3" r="70.9"/>
		<circle class="st20" cx="161.3" cy="145.3" r="99.2"/>
		<circle class="st21" cx="161.6" cy="144.3" r="127.6"/>
	</g>
	<path class="st22" d="M503.5,157.3c25.6,15.7,103.8,63.1,119.7,62.4c2.1-0.1,7.7-0.3,9.2-3.5c1.5-3.3-2.4-8.1-3.8-9.8
		C618.2,193.6,531.7,166.1,503.5,157.3z"/>
	<path class="st23" d="M255.1,336.2c29.5,15.1,119.9,61,139.3,63.3c2.5,0.3,9.4,1.1,11.5-0.8c2.2-2-2.1-5.9-3.7-7.3
		C390.9,380.9,288.5,347.1,255.1,336.2z"/>
	<path class="st24" d="M539.1,497.7c22.4,13.6,91.2,55.2,106.4,59.9c2,0.6,7.4,2.3,9.1,1.6c1.8-0.7-1.3-3.7-2.4-4.7
		C643.8,546.6,564.8,509.7,539.1,497.7z"/>
	
		<linearGradient id="SVGID_11_" gradientUnits="userSpaceOnUse" x1="634.8983" y1="112.6987" x2="762.4573" y2="112.6987" gradientTransform="matrix(0.9484 0.317 -0.317 0.9484 71.747 -215.6448)">
		<stop  offset="0" style="stop-color:#74287C;stop-opacity:0.7"/>
		<stop  offset="0.5298" style="stop-color:#C55EA4;stop-opacity:0.7"/>
		<stop  offset="1" style="stop-color:#BD1C7B;stop-opacity:0.7"/>
	</linearGradient>
	<circle class="st25" cx="698.7" cy="112.7" r="63.8"/>
</g>
</svg>
